# xmcd CD database file
#
# Track frame offsets:
#	150
#	34155
#	65467
#	99763
#	124795
#	153529
#	181778
#	210889
#	243760
#	275271
#	302899
#
# Disc length: 4431 seconds
#
# Revision: 0
# Processed by: cddbd v1.5.2PL0 Copyright (c) Steve Scherf et al.
# Submitted via: CDex 1.51
#
DISCID=85114d0b
DTITLE=Horace Silver Quintet With Art Farmer - Complete Recordings CD 2
DYEAR=1957
DGENRE=Jazz
TTITLE0=Base On Balls
TTITLE1=Funk In Deep Freeze
TTITLE2=Wham And They'r Off
TTITLE3=No Smokin'
TTITLE4=The Back Seat
TTITLE5=Soulville
TTITLE6=Home Cookin'
TTITLE7=Metamorphosis
TTITLE8=My One And Only Love
TTITLE9=The Outlaw
TTITLE10=Melancholy Mood
EXTD=YEAR: 1957
EXTT0=
EXTT1=
EXTT2=
EXTT3=
EXTT4=
EXTT5=
EXTT6=
EXTT7=
EXTT8=
EXTT9=
EXTT10=
PLAYORDER=
